<svg viewBox="0 0 504 367.74" xmlns="http://www.w3.org/2000/svg"><g fill="#26599c"><path d="m69.19 219a40.71 40.71 0 0 0 -12.88-9 37.28 37.28 0 0 0 -14.91-3q-17.26 0-29.33 13.06t-12.07 33.49q0 19.71 12.48 33t29.57 13.26a36.4 36.4 0 0 0 14.14-2.72 43.42 43.42 0 0 0 13-8.88v9.33h22.15v-88.28h-22.15zm-5.9 53.25a22.81 22.81 0 0 1 -17.29 7.26 22.4 22.4 0 0 1 -17-7.38q-6.91-7.38-6.91-18.82t6.79-18.62a22.37 22.37 0 0 1 17.06-7.26 23.1 23.1 0 0 1 17.38 7.14q6.87 7.14 6.87 18.66-.02 11.77-6.9 19.02z"/><path d="m295.79 297.52v-88.26h-22.15v9.74a40.7 40.7 0 0 0 -12.88-9 37.28 37.28 0 0 0 -14.91-3q-17.26 0-29.33 13.06t-12.07 33.5q0 19.71 12.48 33t29.57 13.26a36.4 36.4 0 0 0 14.14-2.72 43.42 43.42 0 0 0 13-8.88v9.33zm-28-25.27a22.81 22.81 0 0 1 -17.3 7.26 22.4 22.4 0 0 1 -17-7.38q-6.91-7.38-6.91-18.82t6.79-18.62a22.37 22.37 0 0 1 17.06-7.26 23.1 23.1 0 0 1 17.38 7.14q6.87 7.14 6.87 18.66-.07 11.77-6.94 19.02z"/><path d="m462.42 279.51q-12 0-19.41-7.13t-7.39-18.38q0-11.58 7.67-19t20.1-7.41a30.86 30.86 0 0 1 11.9 2.11 31.28 31.28 0 0 1 10.27 7.54l18.44-10.13a44.8 44.8 0 0 0 -17.12-14.89 52.06 52.06 0 0 0 -23.6-5.22 53.39 53.39 0 0 0 -25.67 6.16 45.44 45.44 0 0 0 -24.29 40.56q0 18.49 13.18 32.28t36.5 13.79q25.88 0 40.07-18.46l-17.46-12q-8.33 10.18-23.19 10.18z"/><path d="m182.47 202.79-9.28 9.28a39.59 39.59 0 0 0 -20-5.08c-40.27 0-48.57 30-48.57 46.4 0 8.46 2.22 20.53 9.9 30.25-7.66 11.55-15.45 33.11-9 52.48a38.12 38.12 0 0 0 12 19.77q13 11.86 31.37 11.85h.26q18.36 0 31.37-11.85t13-28.59c0-11.62-7.26-17.19-17.7-17.19h-51.82a54.31 54.31 0 0 1 6.06-14.64c6.2 2.69 13.81 4.32 23.16 4.32a39.45 39.45 0 0 0 30-13.14q12.25-13.14 12.25-33.26 0-15.82-7.58-27.31l8.92-8.92zm-8.47 126.76c-.49 4.59-2.57 8.35-6.54 12-5 4.57-10.73 6.73-18 6.78h-.83c-7.25-.06-13-2.21-18-6.78-4-3.62-6-7.38-6.54-12zm-7.5-57.5a22.4 22.4 0 0 1 -17 7.38 22.81 22.81 0 0 1 -17.3-7.26q-6.87-7.26-6.87-19 0-11.52 6.87-18.66a23.1 23.1 0 0 1 17.38-7.14 22.38 22.38 0 0 1 17.06 7.26q6.79 7.26 6.79 18.62t-6.9 18.75z"/><path d="m380.46 209.26h22.15v88.26h-22.15z"/><circle cx="391.53" cy="186.48" r="14.24"/><path d="m204.03 310.11h296.64v19.44h-296.64z"/><path d="m4.03 310.11h87.31v19.44h-87.31z"/><path d="m311 209.17v88.35h22v-45.81q0-25.22 16.69-25.22 5.53 0 11.34 4.17l9.29-18.66q-8.8-5.26-16.87-5.26a22.89 22.89 0 0 0 -10.53 2.26q-4.35 2.18-10 8.07v-7.89z"/><path d="m212.62 189.71h19.44v-39.13c17.09-2.26 32.16-6.69 43.77-13v52.16h19.44v-94.74c5.24-1.64 10.51-3.47 15.72-5.42v100.13h19.44v-76.52c34.57-4.58 60.93-18 66.94-38.18.09-.29.17-.58.25-.88s.2-.78.29-1.18c.13-.56.24-1.13.34-1.71 0-.15 0-.31.07-.46.11-.72.2-1.44.26-2.17 0 0 0-.08 0-.12q.09-1.21.09-2.44c0-7.55-8.78-21.82-23.3-35.17q-1.5-1.38-3.08-2.75c-2.11-1.82-4.32-3.61-6.64-5.35-2.89-2.18-5.93-4.29-9.11-6.28q-1.91-1.2-3.88-2.33a110.91 110.91 0 0 0 -23.37-10.17 90.69 90.69 0 0 0 -26.16-4c-33.82 0-63.54 20.29-80.53 39.25a88.11 88.11 0 0 0 -17.85-1.87c-52.78 0-95.56 49.4-95.56 66.05 0 .46 0 .94.06 1.44a32.69 32.69 0 0 0 8.27 20.13 38.9 38.9 0 0 0 10.32 9c12.17 8.24 29.5 13.91 49.62 16.57v39.14h19.44v-57.34c5.24-1.64 10.51-3.47 15.72-5.42zm51.22-67.83c-8.64 4.19-19.5 7.26-31.78 9.08v-11.67c0-.08 0-.16 0-.24l1.15-.5c10.39-4.59 20-6.44 28-6.44a39.66 39.66 0 0 1 14.05 2.33 46.94 46.94 0 0 1 -11.42 7.44zm98.37-37.38c-8.64 4.19-19.5 7.26-31.78 9.08v-11.67c0-.08 0-.16 0-.24l1.14-.5c10.39-4.59 20-6.44 28-6.44a39.66 39.66 0 0 1 14.03 2.27 46.94 46.94 0 0 1 -11.39 7.5zm-135-18c.05-.13.09-.25.16-.39s.15-.32.23-.49l.22-.47.3-.58.29-.55.38-.66.36-.62.45-.73.43-.69.53-.79.51-.75.62-.86.58-.8.7-.92.65-.85.79-1 .73-.9.87-1 .82-.95 1-1 .9-1 1.07-1.11 1-1c.38-.38.78-.76 1.18-1.15l1-1c.42-.4.87-.8 1.31-1.2l1.08-1c.5-.44 1-.89 1.54-1.33l1-.88c.76-.63 1.55-1.27 2.35-1.9l.4-.33c1.5-1.18 3.24-2.48 5.2-3.83l1.2-.82q1.23-.83 2.56-1.67c2.22-1.4 4.64-2.82 7.25-4.18 9.9-5.19 22.43-9.64 36.28-9.64a73.58 73.58 0 0 1 26.16 5.06l1.79.7c1.77.72 3.48 1.48 5.13 2.27l1.63.8c3.21 1.61 6.17 3.32 8.83 5l1.31.84c3 1.95 5.56 3.84 7.66 5.49q1.41 1.11 2.73 2.21h.05q1.29 1.08 2.49 2.15l.1.09q1.18 1 2.27 2.08l.13.12q1.07 1 2.07 2l.15.15q1 1 1.88 1.93l.17.17q.88.94 1.69 1.85l.17.19c.53.6 1 1.19 1.52 1.76l.17.21q.71.85 1.35 1.67l.17.21.15.19a63.69 63.69 0 0 0 -13.35-1.36c-11.44 0-23.83 2.8-35.83 8.1-29.11 12.86-55.28 20.23-71.8 20.23-1.3 0-2.55 0-3.71-.14a27 27 0 0 1 -11.91-3.43 30.93 30.93 0 0 1 -5.27-4.6 19.68 19.68 0 0 1 -4-8.59zm-73.66 54.5c-1.3 0-2.55 0-3.71-.14a27 27 0 0 1 -11.89-3.48 30.91 30.91 0 0 1 -5.27-4.6 19.68 19.68 0 0 1 -4-8.59c0-.11.1-.25.15-.38s.09-.24.15-.37.15-.34.24-.51l.21-.45.31-.59.28-.54.38-.67.35-.61.46-.73.43-.68.53-.79.51-.75.62-.87.57-.79.72-.94.64-.83.8-1 .72-.88.89-1 .79-.92c.32-.36.67-.74 1-1.1l.84-.92c.37-.39.76-.79 1.15-1.18l.88-.91c.41-.41.85-.83 1.29-1.25l.92-.89c.47-.45 1-.9 1.48-1.35l.91-.83c.58-.52 1.2-1 1.82-1.56l.75-.65q1.33-1.11 2.76-2.23c2.1-1.65 4.67-3.54 7.66-5.49l1.31-.84c2.66-1.68 5.62-3.39 8.83-5q1.61-.81 3.3-1.58t3.46-1.49l1.79-.7a73.59 73.59 0 0 1 26.16-5.06c1.82 0 3.62.08 5.39.23a22.24 22.24 0 0 0 -2.58 9c0 .46 0 .94.05 1.43a32.69 32.69 0 0 0 8.26 20.08 38.9 38.9 0 0 0 10.33 9.06q1.74 1.18 3.62 2.29c-1.5.58-3 1.19-4.49 1.84-29.09 12.83-55.26 20.21-71.77 20.21z"/></g></svg>