<svg height="55" viewBox="0 0 220 55" width="220" xmlns="http://www.w3.org/2000/svg"><path d="m76.1875 32.5625c-3.625 0-5.625-2.3125-5.125-5.625.5625-3.375 3.3125-5.625 6.875-5.625 1.875 0 3.5625.875 4.5625 2.1875l3.5-2.875c-1.875-2.125-4.5625-3.1875-7.4375-3.1875-5.875 0-11 3.9375-11.875 9.5-.875 5.625 2.875 9.5 8.8125 9.5 3 0 6-1.25 8.625-3.3125l-2.5-2.875c-1.8125 1.625-3.6875 2.3125-5.4375 2.3125m23.5-14.9375s-.75-.125-.8125-.125c-.8125-.125-1.6875-.0625-2.5 0-.75.0625-1.5.1875-2.25.4375-.625.1875-1.3125.4375-1.875.8125l.125-.875h-4.25l-2.875 18.125h4.25l1.6875-10.5625c.0625-.625.3125-1.1875.625-1.6875s.75-.9375 1.25-1.25c.5-.375 1-.625 1.5625-.8125s1.125-.3125 1.75-.375c.8125-.0625 1.6875 0 2.5.1875h.0625c.125 0 .75-3.875.75-3.875m14.875 1.375c-1.1875-1-3-1.5625-5.125-1.5625-5.3125 0-10.125 3.8125-11.0625 9.4375-.875 5.625 2.8125 9.4375 7.9375 9.4375 2.3125 0 4.25-.3125 5.875-1.4375l-.125 1h3.875l2.8125-18h-4zm-.875 7.875c-.5625 3.4375-3.125 5.8125-6.4375 5.8125-3.375 0-5.3125-2.5-4.75-5.875s3.25-5.75 6.5625-5.75c3.3125.0625 5.125 2.375 4.625 5.8125zm24.6875-9 .8125-5.125-4.875 3.5-.25 1.6875h-5.5l.5625-3.4375c.3125-1.625 2.0625-1.5625 2.0625-1.5625h2.0625l.625-3.75h-2.375-.5625c-5.8125 0-6 4.5-6 4.5l-.375 2.125-.3125 2.125h-.375l-4.75 3.75h4.5l-2.875 18.3125h4.375l2.875-18.375h5.5l-2.25 14.375h4.3125l2.25-14.375h5.375l.625-3.75zm11.5625 9.0625c.875-5.5625 5.9375-9.5 11.875-9.5 2.875 0 5.5625 1.125 7.4375 3.1875l-3.5 2.875c-1-1.3125-2.6875-2.1875-4.5625-2.1875-3.5625 0-6.3125 2.3125-6.875 5.625-.5 3.3125 1.5 5.625 5.125 5.625 1.75 0 3.625-.6875 5.4375-2.3125l2.5 2.875c-2.625 2.125-5.625 3.3125-8.625 3.3125-5.9375 0-9.6875-3.875-8.8125-9.5m50.625-1.9375-1.6875 11h-4.25l1.6875-10.6875c.4375-2.5-.9375-4-3.375-4-2.5625 0-5.125 1.5625-5.5 4.125l-1.6875 10.5625h-4.25l1.6875-10.6875c.375-2.4375-1.0625-3.9375-3.375-4-2.375.125-5.125 1.625-5.5 4.125l-1.6875 10.5625h-4.25l2.875-18.125h4.25l-.125.875c1.4375-.875 3.0625-1.25 5.125-1.3125h.375c2.625 0 4.75 1.0625 5.875 2.875 1.75-1.8125 4.4375-2.875 7.125-2.875 4.625 0 7.4375 3.0625 6.6875 7.5625m-.1875 8.8125 2.625-3.25c1.4375 1.125 4.1875 2 6.5 2 2.125 0 4.25-.4375 4.5-1.875.1875-1.125-1.875-1.5-4.1875-1.875-4.8125-.8125-7.25-1.8125-6.75-5.4375.75-4.5625 5.4375-5.875 9.3125-5.875 2.75 0 5.625.9375 7.5625 2.25l-2.625 3.25c-1.5-.9375-3.4375-1.625-5.625-1.625-2.5625 0-4.0625.75-4.25 1.9375-.125.8125.5625 1.125 3.5625 1.625 4.375.75 8 1.4375 7.3125 5.625-.5625 3.8125-4.4375 5.9375-9.5 5.9375-2.8125-.0625-6.4375-1.0625-8.4375-2.6875m-152.5625-33.8125h-42.1875c-3.125 0-5.625 2.5-5.625 5.625v42.1875c0 3.125 2.5 5.625 5.625 5.625h42.1875c3.0625 0 5.625-2.5 5.625-5.625v-42.1875c0-3.125-2.5-5.625-5.625-5.625m-21.1875 32.5625c1.75 0 3.625-.6875 5.4375-2.3125l2.5 2.875c-2.625 2.125-5.625 3.3125-8.625 3.3125-5.9375 0-9.6875-3.9375-8.8125-9.5s5.9375-9.5 11.875-9.5c2.875 0 5.5625 1.125 7.4375 3.1875l-3.5 2.875c-1-1.3125-2.6875-2.1875-4.5625-2.1875-3.5625 0-6.3125 2.3125-6.875 5.625-.5 3.3125 1.5 5.625 5.125 5.625" fill="#e5422b" transform="translate(0 .6)"/></svg>