<svg fill="none" height="111" viewBox="0 0 349 111" width="349" xmlns="http://www.w3.org/2000/svg"><g clip-rule="evenodd" fill-rule="evenodd"><path d="m79.833 46.9366h2.3379c1.5522 0 2.8112 1.2576 2.8131 2.8081v10.729c0 1.5505-1.259 2.8081-2.8112 2.8081h-2.3379v5.5894c0 3.0933-2.5103 5.5989-5.6051 5.5989h-31.7856c-3.0967 0-5.6051-2.5075-5.6051-5.5989v-5.5894h-2.3379c-1.5522 0-2.8112-1.2576-2.8112-2.8081v-10.729c0-1.5505 1.259-2.8081 2.8112-2.8081h2.3379v-5.3309c0-3.0934 2.5103-5.599 5.6051-5.599h13.3413v-6.1637c-1.7918-.9245-3.0182-2.787-3.0182-4.9404 0-3.0723 2.4931-5.5626 5.5687-5.5626 3.0757 0 5.5688 2.4903 5.5688 5.5626 0 2.1515-1.2264 4.0159-3.0182 4.9404v6.1637h13.3413c3.0967 0 5.6051 2.5076 5.6051 5.599zm-25.7607 1.5256c0 1.7539-1.4233 3.1756-3.1791 3.1756s-3.1792-1.4217-3.1792-3.1756c0-1.7538 1.4234-3.1756 3.1792-3.1756s3.1791 1.4218 3.1791 3.1756zm15.1943 0c0 1.7539-1.4233 3.1756-3.1791 3.1756s-3.1792-1.4217-3.1792-3.1756c0-1.7538 1.4234-3.1756 3.1792-3.1756s3.1791 1.4218 3.1791 3.1756zm-10.7907 17.0266c-5.494 0-10.6622-2.1324-14.5523-6.0047-.824-.8193-.8259-2.1516-.0057-2.9728.8201-.8231 2.1539-.825 2.976-.0057 3.0967 3.0818 7.211 4.7778 11.582 4.7778 4.3845 0 8.5045-1.7056 11.6051-4.8027.8221-.8212 2.1539-.8212 2.976 0s.8221 2.1515 0 2.9727c-3.8939 3.8935-9.0717 6.0354-14.5811 6.0354z" fill="#f80000"/><path d="m166.08 35.6357v37.6233c0 .5146.41.9343.919.9293h7.229c.509 0 .919-.4147.919-.9293v-38.5277c0-.5596-.484-.9943-1.032-.9243l-7.23.9043c-.459.06-.805.4547-.805.9244zm148.13 4.7316c0 1.369-1.062 2.4482-2.444 2.4482-1.368 0-2.465-1.0742-2.465-2.4482 0-1.3391 1.092-2.4183 2.465-2.4183 1.382 0 2.444 1.0742 2.444 2.4183zm-4.296 0c0 1.0742.785 1.9286 1.866 1.9286 1.047 0 1.823-.8544 1.823-1.9136 0-1.0743-.771-1.9437-1.837-1.9437-1.067 0-1.852.8694-1.852 1.9287zm1.471 1.2691h-.553v-2.4183c.218-.045.524-.075.919-.075.454 0 .657.075.829.1749.134.105.232.2948.232.5296 0 .2649-.202.4697-.493.5597v.0299c.232.09.365.2648.434.5896.074.3698.119.5146.173.6046h-.597c-.064-.0771-.106-.2496-.16-.4734-.009-.0374-.018-.0762-.028-.1162-.045-.2648-.188-.3847-.494-.3847h-.262zm.015-1.374h.262c.306 0 .553-.105.553-.3548 0-.2198-.158-.3697-.509-.3697-.143 0-.247.015-.306.0299zm-170.514 6.2255c.508 0 .918.4147.918.9294v15.454c0 3.3376 1.412 4.4668 3.768 4.4668 1.748 0 3.21-.6745 4.301-1.5489.222-.1798.351-.4496.351-.7344v-17.6375c0-.5147.41-.9294.918-.9294h7.23c.508 0 .918.4147.918.9294v25.5319c0 .4696-.346.8643-.805.9243l-7.229.9044c-.548.0699-1.032-.3648-1.032-.9244v-.9143c0-.7795-.894-1.2192-1.497-.7245-2 1.6488-4.572 2.8679-7.397 2.8679-5.358 0-8.597-3.6324-8.597-9.5332v-18.1321c0-.5147.41-.9294.918-.9294zm41.041 26.7711v-37.6233c0-.4697.345-.8644.805-.9244l7.229-.9043c.548-.07 1.032.3647 1.032.9243v38.5277c0 .5146-.41.9293-.918.9293h-7.23c-.508.005-.918-.4147-.918-.9293zm22.735 1.8237c3.768 0 5.95-1.9086 7.891-4.232h.183c1.205 2.9679 4.039 4.5718 9.703 3.9272.247-.03.445-.2298.479-.4796l.751-5.5611c.039-.3048-.173-.5846-.474-.6245-1.408-.1749-1.689-.4997-1.689-2.2035l.059-8.2192c.119-7.7495-3.002-12.0964-12.483-12.0964-4.948 0-9.304 1.5739-12.198 3.0628-.237.125-.355.3948-.281.6496l1.585 5.656c.094.3297.464.4946.77.3447 2.993-1.4589 6.06-2.5082 8.711-2.5082 3.358 0 4.83 1.3141 4.83 4.232 0 .2998-.237.5446-.534.5546-11.886.4647-15.663 4.6467-15.663 9.8131 0 4.2869 3.649 7.6845 8.36 7.6845zm7.21-13.1457c.331-.0449.622.2149.622.5496v4.4619c0 .1399-.05.2798-.148.3797-.943.9893-2.356 1.6838-4.089 1.6838-2.005 0-3.417-1.1891-3.417-2.9779 0-2.3533 1.906-3.4375 7.032-4.0971zm31.016 13.0858c-1.753 0-4.217-.4397-5.975-1.0593-.138-.05-.281-.0649-.43-.045l-7.274 1.0143c-.553.075-1.046-.3597-1.046-.9243v-38.3728c0-.4697.345-.8644.805-.9244l7.229-.9043c.548-.07 1.032.3647 1.032.9243v12.5061c0 .7845.894 1.2142 1.496.7245 1.585-1.2841 3.645-2.3633 6.217-2.3633 6.771 0 11.66 5.601 11.66 14.4198.004 9.1685-6.297 15.0044-13.714 15.0044zm-1.061-22.0994c-1.823 0-3.107.6396-4.257 1.6089-.213.1798-.336.4397-.336.7195v10.6924c0 .9093.178 1.2241.474 1.384.993.5396 2.242.8444 3.704.8444 3.886 0 6.123-3.0978 6.123-7.6845.005-4.7667-2-7.5647-5.708-7.5647zm18.562 7.5047c0 9.4133 6.301 14.6546 14.543 14.6546 8.187 0 14.839-5.5361 14.839-14.8345 0-9.2934-6.242-14.6546-14.484-14.6546-8.301 0-14.898 5.4212-14.898 14.8345zm9.012-.06c0-4.7666 1.941-7.8044 5.649-7.8044 3.709 0 5.709 3.0978 5.714 7.7445 0 4.7666-1.941 7.7445-5.649 7.7445-3.714 0-5.714-2.9779-5.714-7.6846zm36.686 14.7146c-6.775 0-10.42-2.7981-10.069-10.0679l.38-9.7281c.02-.4647-.306-.8744-.765-.9543l-2.539-.4397c-.454-.08-.78-.4797-.765-.9443l.133-4.3769c.01-.3898.267-.7345.632-.8544l2.889-.9594c.371-.1249.627-.4696.632-.8643l.089-4.7417c.01-.5096.42-.9143.919-.9143h6.943c.513 0 .923.4197.918.9393l-.039 4.7366c-.005.5197.41.9394.918.9394h4.958c.519 0 .933.4297.919.9543l-.134 5.3462c-.014.5047-.419.9094-.918.9094h-5.511c-.499 0-.904.3997-.919.9043l-.266 9.0486c-.119 2.5632 1.358 3.6324 3.595 3.6324.819 0 1.698-.1599 2.597-.4097.529-.1449 1.072.2099 1.151.7595l.78 5.2812c.069.4647-.217.9094-.662 1.0343-1.792.4997-3.447.7695-5.866.7695zm-177.863-7.9644c.193 2.2584.716 4.1721 1.882 5.5211.523.6096.113 1.5539-.682 1.5489h-2.192-2.687-20.266c-.509 0-.918-.4147-.918-.9293v-35.3749c0-.5147.409-.9294.918-.9294h7.521c.509 0 .918.4147.918.9294v27.4505c0 .5146.41.9293.919.9293h10.898.005 2.766c.018 0 .032.0086.047.0173.013.0076.026.0154.042.0177.118.02.222.06.321.1249.266.1449.479.3698.508.6945z" fill="#223340"/></g></svg>