<svg xmlns="http://www.w3.org/2000/svg" viewBox="0 0 172.62 34.06"><defs><style>.a9669e03-1fb5-412c-8bb7-c77ece23d137{fill:#0a0a0a;}</style></defs><title>Platformsh_logo_black</title><g id="aedaead0-bf20-45c7-a212-dce5d35b4ab7" data-name="Layer 2"><g id="b96a14d9-7a02-40ae-94b5-88ede38115f4" data-name="Layer 1"><rect class="a9669e03-1fb5-412c-8bb7-c77ece23d137" x="144.07" width="28.55" height="11.35"/><rect class="a9669e03-1fb5-412c-8bb7-c77ece23d137" x="144.07" y="24.69" width="28.55" height="3.86"/><rect class="a9669e03-1fb5-412c-8bb7-c77ece23d137" x="144.07" y="15.02" width="28.55" height="5.82"/><path class="a9669e03-1fb5-412c-8bb7-c77ece23d137" d="M0,13.85H3.61V16a5.45,5.45,0,0,1,1.9-1.79,5.25,5.25,0,0,1,2.66-.69,5.59,5.59,0,0,1,4.33,2,8.06,8.06,0,0,1,1.78,5.56,8.38,8.38,0,0,1-1.79,5.71,5.6,5.6,0,0,1-4.34,2A4.94,4.94,0,0,1,6,28.34a7.46,7.46,0,0,1-2.08-1.66v7.38H0Zm3.83,7.07a5.66,5.66,0,0,0,1,3.65A3,3,0,0,0,7.2,25.74a2.78,2.78,0,0,0,2.24-1.08,5.55,5.55,0,0,0,.9-3.55,5.29,5.29,0,0,0-.93-3.42,2.84,2.84,0,0,0-2.28-1.11,3,3,0,0,0-2.36,1.09A4.88,4.88,0,0,0,3.83,20.92Z"/><path class="a9669e03-1fb5-412c-8bb7-c77ece23d137" d="M16.07,28.49V8.28h3.87V28.49Z"/><path class="a9669e03-1fb5-412c-8bb7-c77ece23d137" d="M25.5,18.32,22,17.68a5.48,5.48,0,0,1,2-3.14,7.48,7.48,0,0,1,4.3-1,9.4,9.4,0,0,1,3.86.61A3.8,3.8,0,0,1,34,15.69a7.89,7.89,0,0,1,.52,3.47l0,4.52a15,15,0,0,0,.19,2.84,8,8,0,0,0,.69,2H31.49c-.1-.26-.23-.64-.37-1.15-.07-.23-.11-.38-.14-.45a7,7,0,0,1-2.12,1.45,6.15,6.15,0,0,1-2.42.48,5,5,0,0,1-3.56-1.23,4.05,4.05,0,0,1-1.3-3.1,4.2,4.2,0,0,1,.59-2.21,3.87,3.87,0,0,1,1.66-1.49,13.49,13.49,0,0,1,3.08-.9,21.67,21.67,0,0,0,3.77-.95v-.39A2,2,0,0,0,30.12,17,3.26,3.26,0,0,0,28,16.48a2.8,2.8,0,0,0-1.61.41A2.81,2.81,0,0,0,25.5,18.32Zm5.18,3.14c-.5.16-1.29.36-2.36.59a7.55,7.55,0,0,0-2.11.67,1.65,1.65,0,0,0-.75,1.37,1.93,1.93,0,0,0,.6,1.41,2.13,2.13,0,0,0,1.54.59,3.34,3.34,0,0,0,2-.69,2.47,2.47,0,0,0,.93-1.28,7.73,7.73,0,0,0,.15-1.89Z"/><path class="a9669e03-1fb5-412c-8bb7-c77ece23d137" d="M43.81,13.85v3.09H41.17v5.89a15.15,15.15,0,0,0,.07,2.09.82.82,0,0,0,.35.49,1,1,0,0,0,.65.2,5,5,0,0,0,1.56-.38l.33,3a7.63,7.63,0,0,1-3.06.58,4.93,4.93,0,0,1-1.89-.35A2.79,2.79,0,0,1,38,27.56a3.67,3.67,0,0,1-.55-1.51,19.41,19.41,0,0,1-.12-2.73V16.94H35.5V13.85h1.78V10.94l3.89-2.26v5.17Z"/><path class="a9669e03-1fb5-412c-8bb7-c77ece23d137" d="M44.94,13.85h2.15v-1.1A7.41,7.41,0,0,1,47.48,10a3.18,3.18,0,0,1,1.45-1.48,5.56,5.56,0,0,1,2.67-.57,10.83,10.83,0,0,1,3.24.49l-.53,2.71a7.42,7.42,0,0,0-1.77-.23,1.6,1.6,0,0,0-1.21.4A2.28,2.28,0,0,0,51,12.82v1h2.9v3H51V28.49H47.09V16.9H44.94Z"/><path class="a9669e03-1fb5-412c-8bb7-c77ece23d137" d="M54.58,21a8,8,0,0,1,1-3.73,6.59,6.59,0,0,1,2.7-2.76,8,8,0,0,1,3.89-1,7.29,7.29,0,0,1,5.44,2.16,7.43,7.43,0,0,1,2.13,5.45,7.52,7.52,0,0,1-2.14,5.5,7.24,7.24,0,0,1-5.4,2.19,8.47,8.47,0,0,1-3.84-.91,6.3,6.3,0,0,1-2.78-2.67A8.91,8.91,0,0,1,54.58,21Zm4,.21a4.83,4.83,0,0,0,1,3.33,3.23,3.23,0,0,0,2.54,1.16,3.26,3.26,0,0,0,2.55-1.16,4.93,4.93,0,0,0,1-3.36,4.86,4.86,0,0,0-1-3.31,3.29,3.29,0,0,0-2.55-1.15,3.25,3.25,0,0,0-2.54,1.15A4.86,4.86,0,0,0,58.55,21.17Z"/><path class="a9669e03-1fb5-412c-8bb7-c77ece23d137" d="M75,28.49H71.13V13.85h3.6v2.08A6.06,6.06,0,0,1,76.39,14a3.07,3.07,0,0,1,1.67-.47,4.9,4.9,0,0,1,2.55.73l-1.2,3.38A3.32,3.32,0,0,0,77.59,17a2.11,2.11,0,0,0-1.37.45,3,3,0,0,0-.89,1.62A22.62,22.62,0,0,0,75,24Z"/><path class="a9669e03-1fb5-412c-8bb7-c77ece23d137" d="M81.77,13.85h3.57v2a5.75,5.75,0,0,1,4.56-2.33,4.87,4.87,0,0,1,2.44.58A4.39,4.39,0,0,1,94,15.85a6.73,6.73,0,0,1,2.09-1.75,5,5,0,0,1,2.38-.58,5.36,5.36,0,0,1,2.73.65,4.06,4.06,0,0,1,1.67,1.93,8.44,8.44,0,0,1,.4,3v9.36H99.42V20.12a6.16,6.16,0,0,0-.4-2.81,1.83,1.83,0,0,0-1.65-.83,2.66,2.66,0,0,0-1.53.5,2.71,2.71,0,0,0-1,1.45,10.52,10.52,0,0,0-.32,3v7H90.61v-8a11.17,11.17,0,0,0-.2-2.76,1.76,1.76,0,0,0-.64-.92,2,2,0,0,0-1.18-.31A2.82,2.82,0,0,0,87,17a2.7,2.7,0,0,0-1,1.4,10.2,10.2,0,0,0-.31,3v7.11H81.77Z"/><path class="a9669e03-1fb5-412c-8bb7-c77ece23d137" d="M105.23,28.49V24.61h3.87v3.88Z"/><path class="a9669e03-1fb5-412c-8bb7-c77ece23d137" d="M110.55,24.31l3.89-.59a2.84,2.84,0,0,0,1,1.72,3.4,3.4,0,0,0,2.12.58,3.86,3.86,0,0,0,2.27-.55,1.25,1.25,0,0,0,.5-1,1.05,1.05,0,0,0-.27-.74,3.09,3.09,0,0,0-1.3-.5q-4.68-1-5.94-1.89a3.79,3.79,0,0,1-1.73-3.3,4.09,4.09,0,0,1,1.5-3.2,7,7,0,0,1,4.66-1.29,8,8,0,0,1,4.46,1,5,5,0,0,1,2,2.89l-3.66.68a2.21,2.21,0,0,0-.89-1.31,3.18,3.18,0,0,0-1.86-.45,4.33,4.33,0,0,0-2.2.42.93.93,0,0,0-.44.79.85.85,0,0,0,.39.7,14.37,14.37,0,0,0,3.62,1.09A10.82,10.82,0,0,1,123,21a3.58,3.58,0,0,1,1.21,2.88,4.4,4.4,0,0,1-1.68,3.46,7.42,7.42,0,0,1-5,1.45,8.07,8.07,0,0,1-4.73-1.22A5.56,5.56,0,0,1,110.55,24.31Z"/><path class="a9669e03-1fb5-412c-8bb7-c77ece23d137" d="M129.66,8.28v7.43A5.79,5.79,0,0,1,136.55,14a3.92,3.92,0,0,1,1.62,1.26,4.66,4.66,0,0,1,.74,1.71,15.64,15.64,0,0,1,.2,2.91v8.59h-3.87V20.75a11.35,11.35,0,0,0-.22-2.92,1.93,1.93,0,0,0-.78-1,2.53,2.53,0,0,0-1.4-.37,3.22,3.22,0,0,0-1.72.47A2.64,2.64,0,0,0,130,18.36a8.63,8.63,0,0,0-.35,2.8v7.33h-3.87V8.28Z"/></g></g></svg>