<svg xmlns="http://www.w3.org/2000/svg" viewBox="0 0 159 65"><g fill="none" fill-rule="evenodd"><path fill="#000" d="M34 52V0h6.4v13H49v6.3h-8.6V52M50 35.3c0-3.5.8-5 2.3-7 1.7-2.5 4.2-3.7 7.6-3.7h15.8V22c0-.7-.2-1.3-.7-1.8-.4-.5-1-.8-1.6-.8H53V13h20c5 0 8 2.4 9 7l.2 2v20.4c0 1.7-.5 3.4-1.4 5-2 3.2-4.7 4.8-8 4.8h-13c-1.8 0-3.6-.6-5.5-2-1.8-1.3-3-2.8-3.7-4.7-.4-1-.6-2.3-.6-3.6v-6.7zm8 10c.8.3 2 .5 3.7.5h8.8c3.5 0 5.3-1.2 5.3-3.8v-7c0-2.3-1.5-3.7-4.5-4H61c-3 .4-4.6 1.7-4.6 4v7c0 1.6.6 2.7 1.7 3.3zM86 64.3V58h21c3 0 4.7-1.7 4.7-4.7v-1H96.3c-3 0-5.3-1-7.2-3.2-1.8-2-2.7-4.4-2.7-7.3V23c0-4.7 2-7.7 5.8-9.3 1.3-.5 2.4-.7 3.4-.7H109c5.3 0 8.3 2.5 9 7.6v34.2c0 3-1 5.5-3 7.2-2 1.5-4.7 2.3-8 2.3H86zm6.7-22.5c.4 2.7 1.8 4 4 4h11.6c1 0 2-.3 2.5-1 .6-.7 1-1.7 1-3V24c0-3-1.2-4.4-3.5-4.4h-12c-2.4.4-3.6 2-3.6 4.3v18zM126 0h4v30h-4z"/><path fill="#000" d="M122 0h8v4h-8"/><path fill="#2D70C0" d="M0 26L17 0h6L6 26l17 26h-6M159 26L142 0h-6l17 26-17 26h6"/></g></svg>
