<svg xmlns="http://www.w3.org/2000/svg" viewBox="0 0 448.7 101.04"><g data-name="Ebene 2"><g data-name="Ebene 1"><path d="M41.5 28.37V71.5c0 3-.72 4.24-3.74 5.55a46.91 46.91 0 0 1-18.23 3.2C6 80.25 0 73 0 60.81V28.37c0-.81.32-1.12 1.22-1.12h1.89c.9 0 1.22.31 1.22 1.12v32.26c0 10.28 4.74 15.69 15.61 15.69a41.22 41.22 0 0 0 15.11-2.61 3.14 3.14 0 0 0 2.12-3.43V28.37c0-.81.32-1.12 1.22-1.12h2c.84.04 1.11.31 1.11 1.12zm35.91-2.61c13.48 0 19.44 7.26 19.44 19.44v32.43c0 .9-.32 1.22-1.13 1.22h-2c-.9 0-1.22-.32-1.22-1.22V45.42c0-10.19-4.73-15.6-15.6-15.6a44.76 44.76 0 0 0-15.21 2.61 3.07 3.07 0 0 0-2 3.34v41.86c0 .9-.31 1.22-1.21 1.22h-1.9c-.81 0-1.22-.32-1.22-1.22v-43c0-3.11.82-4.24 3.75-5.54a46.73 46.73 0 0 1 18.3-3.33zm51.78 4.06c-10.87 0-15.74 5.64-15.74 15.83v14.53c0 10.69 5.46 16.23 16.92 16.23a39.51 39.51 0 0 0 13.53-2.34c2.21-1 2.52-1.31 2.52-3.43v-37a40 40 0 0 0-17.23-3.82zm-.63-4.06a47.07 47.07 0 0 1 17.82 3.61V5.5c0-.9.31-1.21 1.22-1.21h2c.81 0 1.12.31 1.12 1.21v66.31c0 3.34-.72 4.24-3.92 5.55a43.74 43.74 0 0 1-16.65 2.93c-14.39 0-21-7-21-20V45.56c.06-12.45 6.1-19.8 19.41-19.8zm56.34 4.06a38.09 38.09 0 0 0-13.49 2.3c-2.21.9-2.52 1.31-2.52 3.43V71.9a39 39 0 0 0 17.23 4.42c10.87 0 15.7-5.63 15.7-15.69V46c0-10.68-5.42-16.18-16.92-16.18zm.41-4c14.3 0 20.75 7.17 20.75 20.17v14.77c0 12.27-6.05 19.53-19.76 19.53A39.73 39.73 0 0 1 168.89 76v23.83c0 .9-.32 1.21-1.22 1.21h-1.89c-.91 0-1.22-.31-1.22-1.21V34.24c0-3.25.81-4.24 4-5.55a43.13 43.13 0 0 1 16.74-2.89zm53.32 27.54c-12.59 0-17 3.21-17 11.51 0 7.44 3 11.77 16.73 11.77 6 0 10-.72 13.31-2 1.89-.81 2.3-1.31 2.3-3.74V54.45a138.91 138.91 0 0 0-15.34-1.09zm0-27.6c15.83 0 19.53 9.15 19.53 19.66V72c0 3.52-.81 4.51-3.61 5.73-3.74 1.62-8.66 2.61-15.92 2.61-17.42 0-21.48-5.45-21.48-15.33 0-11.28 6.14-15.2 21.88-15.2a116.45 116.45 0 0 1 14.8 1.12v-5.5c0-8.57-2.62-15.61-15.34-15.61-7.94 0-13 3.25-15.92 8.57-.5.72-.72.81-1.63.5l-1.48-.59c-.91-.4-1.13-.81-.73-1.71 3.57-6.86 9.93-10.78 19.9-10.78zm74.74 2.61V71.5c0 3-.72 4.24-3.74 5.55a46.87 46.87 0 0 1-18.23 3.2c-13.62 0-19.53-7.26-19.53-19.44V28.37c0-.81.32-1.12 1.22-1.12H275c.91 0 1.22.31 1.22 1.12v32.26c0 10.28 4.74 15.69 15.61 15.69a41.18 41.18 0 0 0 15.11-2.61 3.13 3.13 0 0 0 2.06-3.43V28.37c0-.81.32-1.12 1.22-1.12h2c.84.04 1.15.31 1.15 1.12zm16.83 50.48h-1.9c-.9 0-1.21-.32-1.21-1.22V5.5c0-.9.31-1.21 1.21-1.21h1.9c.9 0 1.22.31 1.22 1.21v72.13c0 .95-.32 1.22-1.22 1.22z" fill="#1e1e1c"/><path d="M422.4 0a25.53 25.53 0 0 0-20.75 10.83A25.46 25.46 0 0 0 380.9 0a26.34 26.34 0 0 0-26.39 26.39c0 20.75 47.1 58.41 47.1 58.41s47.09-37.66 47.09-58.41A26.2 26.2 0 0 0 422.4 0z" fill="#87bc2a"/></g></g></svg>