<?xml version="1.0" encoding="UTF-8"?>
<!DOCTYPE svg PUBLIC "-//W3C//DTD SVG 1.1//EN" "http://www.w3.org/Graphics/SVG/1.1/DTD/svg11.dtd">
<svg version="1.2" width="181.95mm" height="34.32mm" viewBox="924 8912 18195 3432" preserveAspectRatio="xMidYMid" fill-rule="evenodd" stroke-width="28.222" stroke-linejoin="round" xmlns="http://www.w3.org/2000/svg" xmlns:ooo="http://xml.openoffice.org/svg/export" xmlns:xlink="http://www.w3.org/1999/xlink" xmlns:presentation="http://sun.com/xmlns/staroffice/presentation" xmlns:smil="http://www.w3.org/2001/SMIL20/" xmlns:anim="urn:oasis:names:tc:opendocument:xmlns:animation:1.0" xmlns:svg="urn:oasis:names:tc:opendocument:xmlns:svg-compatible:1.0" xml:space="preserve">
 <defs class="EmbeddedBulletChars">
  <g id="bullet-char-template-57356" transform="scale(0.00048828125,-0.00048828125)">
   <path d="M 580,1141 L 1163,571 580,0 -4,571 580,1141 Z"/>
  </g>
  <g id="bullet-char-template-57354" transform="scale(0.00048828125,-0.00048828125)">
   <path d="M 8,1128 L 1137,1128 1137,0 8,0 8,1128 Z"/>
  </g>
  <g id="bullet-char-template-10146" transform="scale(0.00048828125,-0.00048828125)">
   <path d="M 174,0 L 602,739 174,1481 1456,739 174,0 Z M 1358,739 L 309,1346 659,739 1358,739 Z"/>
  </g>
  <g id="bullet-char-template-10132" transform="scale(0.00048828125,-0.00048828125)">
   <path d="M 2015,739 L 1276,0 717,0 1260,543 174,543 174,936 1260,936 717,1481 1274,1481 2015,739 Z"/>
  </g>
  <g id="bullet-char-template-10007" transform="scale(0.00048828125,-0.00048828125)">
   <path d="M 0,-2 C -7,14 -16,27 -25,37 L 356,567 C 262,823 215,952 215,954 215,979 228,992 255,992 264,992 276,990 289,987 310,991 331,999 354,1012 L 381,999 492,748 772,1049 836,1024 860,1049 C 881,1039 901,1025 922,1006 886,937 835,863 770,784 769,783 710,716 594,584 L 774,223 C 774,196 753,168 711,139 L 727,119 C 717,90 699,76 672,76 641,76 570,178 457,381 L 164,-76 C 142,-110 111,-127 72,-127 30,-127 9,-110 8,-76 1,-67 -2,-52 -2,-32 -2,-23 -1,-13 0,-2 Z"/>
  </g>
  <g id="bullet-char-template-10004" transform="scale(0.00048828125,-0.00048828125)">
   <path d="M 285,-33 C 182,-33 111,30 74,156 52,228 41,333 41,471 41,549 55,616 82,672 116,743 169,778 240,778 293,778 328,747 346,684 L 369,508 C 377,444 397,411 428,410 L 1163,1116 C 1174,1127 1196,1133 1229,1133 1271,1133 1292,1118 1292,1087 L 1292,965 C 1292,929 1282,901 1262,881 L 442,47 C 390,-6 338,-33 285,-33 Z"/>
  </g>
  <g id="bullet-char-template-9679" transform="scale(0.00048828125,-0.00048828125)">
   <path d="M 813,0 C 632,0 489,54 383,161 276,268 223,411 223,592 223,773 276,916 383,1023 489,1130 632,1184 813,1184 992,1184 1136,1130 1245,1023 1353,916 1407,772 1407,592 1407,412 1353,268 1245,161 1136,54 992,0 813,0 Z"/>
  </g>
  <g id="bullet-char-template-8226" transform="scale(0.00048828125,-0.00048828125)">
   <path d="M 346,457 C 273,457 209,483 155,535 101,586 74,649 74,723 74,796 101,859 155,911 209,963 273,989 346,989 419,989 480,963 531,910 582,859 608,796 608,723 608,648 583,586 532,535 482,483 420,457 346,457 Z"/>
  </g>
  <g id="bullet-char-template-8211" transform="scale(0.00048828125,-0.00048828125)">
   <path d="M -4,459 L 1135,459 1135,606 -4,606 -4,459 Z"/>
  </g>
  <g id="bullet-char-template-61548" transform="scale(0.00048828125,-0.00048828125)">
   <path d="M 173,740 C 173,903 231,1043 346,1159 462,1274 601,1332 765,1332 928,1332 1067,1274 1183,1159 1299,1043 1357,903 1357,740 1357,577 1299,437 1183,322 1067,206 928,148 765,148 601,148 462,206 346,322 231,437 173,577 173,740 Z"/>
  </g>
 </defs>
 <g class="Page">
  <g class="Group">
   <g class="com.sun.star.drawing.ClosedBezierShape">
    <g id="id3">
     <rect class="BoundingBox" stroke="none" fill="none" x="924" y="10012" width="3461" height="2240"/>
     <path fill="rgb(0,0,0)" stroke="none" d="M 3573,12251 L 4384,10013 4151,10013 3703,11318 C 3657,11455 3615,11579 3577,11691 3540,11803 3509,11909 3484,12008 L 3475,12008 C 3444,11912 3410,11807 3372,11693 3335,11580 3290,11453 3237,11314 L 2762,10013 2533,10013 2035,11318 C 1982,11455 1935,11579 1895,11691 1854,11803 1818,11909 1787,12008 L 1778,12008 C 1750,11906 1720,11799 1687,11689 1655,11579 1616,11455 1573,11318 L 1163,10013 925,10013 1661,12251 1867,12251 2356,11020 C 2409,10880 2459,10744 2508,10612 2557,10480 2598,10349 2636,10218 L 2645,10218 C 2679,10346 2719,10475 2764,10605 2809,10735 2858,10873 2911,11015 L 3367,12251 3573,12251 Z"/>
    </g>
   </g>
   <g class="com.sun.star.drawing.ClosedBezierShape">
    <g id="id4">
     <rect class="BoundingBox" stroke="none" fill="none" x="4667" y="9956" width="2095" height="2351"/>
     <path fill="rgb(0,0,0)" stroke="none" d="M 6761,10992 C 6761,10917 6749,10821 6726,10705 6703,10589 6656,10474 6586,10362 6516,10251 6418,10155 6290,10076 6162,9997 5995,9957 5787,9957 5628,9957 5481,9986 5344,10043 5207,10100 5089,10182 4990,10288 4890,10393 4812,10522 4754,10675 4697,10827 4668,10998 4668,11188 4668,11349 4695,11498 4750,11635 4804,11772 4881,11890 4981,11989 5080,12089 5200,12166 5342,12222 5483,12278 5641,12306 5815,12306 5871,12306 5924,12305 5975,12302 6026,12299 6074,12294 6118,12288 L 6099,12096 C 6025,12106 5938,12111 5838,12111 5705,12111 5580,12090 5465,12050 5350,12010 5250,11948 5164,11866 5078,11784 5012,11681 4964,11560 4916,11439 4892,11296 4892,11131 L 6752,11131 C 6758,11113 6761,11094 6761,11076 6761,11054 6761,11026 6761,10992 Z M 6523,10950 L 4906,10950 C 4918,10866 4943,10777 4980,10682 5018,10587 5070,10500 5137,10421 5204,10342 5288,10275 5391,10223 5493,10170 5616,10143 5759,10143 5927,10143 6061,10174 6162,10236 6263,10298 6341,10373 6395,10460 6449,10547 6484,10636 6500,10726 6516,10816 6523,10891 6523,10950 Z"/>
    </g>
   </g>
   <g class="com.sun.star.drawing.ClosedBezierShape">
    <g id="id5">
     <rect class="BoundingBox" stroke="none" fill="none" x="7361" y="8912" width="2267" height="3396"/>
     <path fill="rgb(0,0,0)" stroke="none" d="M 9627,11100 C 9627,10944 9602,10797 9551,10659 9500,10521 9427,10400 9334,10295 9241,10190 9128,10109 8996,10048 8864,9987 8715,9957 8551,9957 8318,9957 8124,10006 7970,10104 7817,10202 7699,10326 7618,10475 L 7609,10475 7609,8913 7381,8913 7381,11710 C 7381,11800 7379,11890 7376,11980 7373,12071 7368,12161 7362,12251 L 7572,12251 7586,11817 7595,11817 C 7704,11994 7835,12120 7989,12195 8143,12270 8318,12307 8513,12307 8653,12307 8789,12281 8921,12230 9054,12178 9172,12102 9278,12001 9383,11900 9468,11774 9532,11624 9596,11474 9627,11298 9627,11100 Z M 9399,11109 C 9399,11261 9377,11399 9334,11524 9291,11649 9229,11754 9149,11843 9069,11932 8974,12000 8861,12048 8748,12096 8619,12120 8476,12120 8367,12120 8267,12104 8175,12071 8083,12038 8001,11996 7928,11943 7855,11890 7793,11828 7742,11757 7691,11685 7654,11611 7633,11533 7617,11471 7609,11413 7609,11361 L 7609,10974 C 7609,10930 7613,10892 7621,10859 7629,10826 7637,10796 7646,10768 7677,10666 7722,10575 7782,10496 7842,10417 7908,10351 7984,10300 8060,10249 8143,10210 8231,10183 8320,10157 8411,10144 8504,10144 8644,10144 8769,10169 8879,10221 8990,10272 9084,10342 9161,10431 9238,10520 9298,10622 9339,10738 9380,10854 9399,10978 9399,11109 Z"/>
    </g>
   </g>
   <g class="com.sun.star.drawing.ClosedBezierShape">
    <g id="id6">
     <rect class="BoundingBox" stroke="none" fill="none" x="10096" y="8987" width="709" height="3265"/>
     <path fill="rgb(0,0,0)" stroke="none" d="M 10176,12251 L 10719,12251 C 10738,12251 10747,12242 10747,12223 L 10747,9995 C 10747,9976 10738,9967 10719,9967 L 10176,9967 C 10157,9967 10148,9976 10148,9995 L 10148,12223 C 10148,12242 10157,12251 10176,12251 Z M 10803,9323 C 10800,9230 10768,9151 10705,9086 10642,9021 10559,8988 10451,8988 10342,8988 10256,9021 10192,9088 10128,9155 10097,9233 10097,9323 10097,9414 10128,9492 10190,9559 10252,9626 10338,9659 10447,9659 10556,9659 10644,9626 10708,9559 10772,9492 10803,9414 10803,9323 Z"/>
    </g>
   </g>
   <g class="com.sun.star.drawing.ClosedBezierShape">
    <g id="id7">
     <rect class="BoundingBox" stroke="none" fill="none" x="11405" y="8912" width="2268" height="3386"/>
     <path fill="rgb(0,0,0)" stroke="none" d="M 12981,12297 L 13642,12251 C 13655,12251 13663,12245 13668,12234 13673,12223 13672,12213 13665,12204 13488,11987 13312,11769 13137,11551 12961,11334 12786,11116 12612,10899 L 13516,10013 C 13526,10004 13529,9994 13526,9983 13523,9972 13513,9967 13498,9967 L 12826,9967 C 12817,9967 12809,9970 12803,9976 12697,10097 12592,10219 12486,10342 12380,10465 12273,10587 12165,10708 L 12169,10708 C 12144,10733 12119,10762 12092,10796 12065,10830 12040,10863 12015,10894 L 12006,8941 C 12006,8922 11997,8913 11978,8913 L 11433,8913 C 11414,8913 11405,8922 11405,8941 L 11405,12223 C 11405,12241 11414,12251 11433,12251 L 11978,12251 C 11997,12251 12006,12241 12006,12223 L 12006,11458 C 12040,11424 12072,11389 12102,11353 12131,11318 12161,11284 12193,11253 L 12957,12288 C 12963,12294 12971,12297 12981,12297 Z"/>
    </g>
   </g>
   <g class="com.sun.star.drawing.ClosedBezierShape">
    <g id="id8">
     <rect class="BoundingBox" stroke="none" fill="none" x="13754" y="9914" width="2514" height="2393"/>
     <path fill="rgb(0,0,0)" stroke="none" d="M 16266,11080 C 16266,10915 16237,10762 16178,10619 16119,10476 16036,10352 15928,10248 15821,10144 15691,10063 15539,10004 15387,9945 15218,9915 15031,9915 14842,9915 14668,9944 14511,10001 14354,10059 14220,10141 14108,10248 13996,10355 13910,10484 13847,10633 13784,10782 13754,10948 13754,11131 13754,11308 13786,11469 13850,11614 13914,11759 14001,11882 14113,11985 14225,12087 14356,12166 14507,12222 14657,12278 14820,12306 14994,12306 15156,12306 15313,12281 15465,12229 15617,12178 15752,12101 15870,11998 15988,11896 16084,11768 16157,11616 16230,11464 16266,11285 16266,11080 Z M 15647,11104 C 15647,11225 15630,11332 15595,11425 15560,11518 15515,11598 15458,11663 15401,11728 15332,11777 15253,11810 15174,11843 15089,11859 14999,11859 14908,11859 14824,11841 14747,11805 14670,11769 14602,11719 14544,11654 14486,11589 14442,11510 14409,11418 14376,11326 14360,11225 14360,11113 14360,11017 14373,10923 14400,10831 14427,10739 14466,10658 14521,10588 14576,10518 14643,10463 14724,10421 14805,10379 14901,10358 15012,10358 15124,10358 15220,10380 15299,10425 15378,10470 15444,10528 15495,10598 15546,10668 15584,10748 15609,10838 15634,10928 15647,11017 15647,11104 Z M 15036,10875 C 14977,10875 14928,10895 14889,10936 14850,10977 14831,11024 14831,11080 14831,11139 14850,11189 14889,11230 14928,11271 14977,11290 15036,11290 15092,11290 15140,11270 15180,11230 15220,11190 15241,11139 15241,11080 15241,11024 15221,10976 15180,10936 15139,10896 15092,10875 15036,10875 Z"/>
    </g>
   </g>
   <g class="com.sun.star.drawing.ClosedBezierShape">
    <g id="id9">
     <rect class="BoundingBox" stroke="none" fill="none" x="16752" y="9914" width="2367" height="2430"/>
     <path fill="rgb(0,0,0)" stroke="none" d="M 18547,12343 L 19092,12250 C 19117,12244 19123,12230 19111,12208 19107,12202 19096,12177 19076,12134 19056,12091 19034,12033 19010,11961 18987,11890 18975,11826 18975,11770 L 18975,10950 C 18975,10748 18947,10580 18889,10446 18831,10312 18759,10206 18672,10127 18585,10048 18489,9993 18383,9962 18277,9931 18177,9915 18080,9915 17987,9915 17901,9926 17822,9948 17743,9970 17671,9998 17607,10034 17543,10070 17487,10109 17437,10153 17387,10196 17347,10240 17316,10283 L 17283,9989 C 17283,9974 17274,9966 17255,9966 L 16780,9966 C 16761,9966 16752,9975 16752,9994 16758,10093 16763,10197 16766,10304 16769,10411 16771,10527 16771,10651 L 16771,12222 C 16771,12241 16780,12250 16799,12250 L 17344,12250 C 17362,12250 17372,12241 17372,12222 L 17372,10927 C 17372,10899 17374,10870 17379,10840 17384,10810 17390,10784 17400,10759 17434,10672 17493,10592 17577,10519 17661,10446 17767,10409 17894,10409 18065,10409 18187,10466 18262,10579 18337,10692 18374,10836 18374,11011 L 18374,11770 C 18374,11882 18386,11982 18411,12071 18436,12160 18459,12223 18481,12262 18503,12301 18515,12323 18519,12330 18522,12339 18531,12343 18547,12343 Z"/>
    </g>
   </g>
  </g>
 </g>
</svg>